<svg xmlns="http://www.w3.org/2000/svg" width="30" height="30" viewBox="0 0 30 30">
  <g id="Group_289" data-name="Group 289" transform="translate(-340 -780)">
    <rect id="Rectangle_11936" data-name="Rectangle 11936" width="30" height="30" rx="5" transform="translate(340 780)" fill="#89888c"/>
    <path id="twitter" d="M17.965,5.111a7.5,7.5,0,0,1-2.119.581A3.718,3.718,0,0,0,17.468,3.65a7.616,7.616,0,0,1-2.345.888A3.69,3.69,0,0,0,8.835,7.9a10.453,10.453,0,0,1-7.6-3.844,3.616,3.616,0,0,0-.5,1.856A3.691,3.691,0,0,0,2.371,8.984,3.678,3.678,0,0,1,.7,8.522v.045a3.692,3.692,0,0,0,2.959,3.62A3.747,3.747,0,0,1,2,12.251a3.7,3.7,0,0,0,3.453,2.562A7.4,7.4,0,0,1,.877,16.392,7.83,7.83,0,0,1,0,16.341,10.5,10.5,0,0,0,5.667,18a10.423,10.423,0,0,0,10.5-10.489c0-.157,0-.315-.011-.472A7.452,7.452,0,0,0,18,5.126l-.035-.015Z" transform="translate(346 784.317)" fill="#fff"/>
  </g>
</svg>
