<svg xmlns="http://www.w3.org/2000/svg" width="30" height="30" viewBox="0 0 30 30">
  <g id="Group_290" data-name="Group 290" transform="translate(-382 -780)">
    <rect id="Rectangle_11931" data-name="Rectangle 11931" width="30" height="30" rx="5" transform="translate(382 780)" fill="#89888c"/>
    <path id="youtube" d="M10.141,16.165V11.107L15,13.645l-4.862,2.52Zm10.678-5.933A3.885,3.885,0,0,0,20.1,8.444a2.576,2.576,0,0,0-1.8-.762C15.782,7.5,12,7.5,12,7.5H12s-3.778,0-6.3.182a2.576,2.576,0,0,0-1.8.762,3.892,3.892,0,0,0-.716,1.787A27.229,27.229,0,0,0,3,13.144V14.51a27.243,27.243,0,0,0,.18,2.913A3.886,3.886,0,0,0,3.9,19.21a3.046,3.046,0,0,0,1.985.769c1.44.137,6.12.18,6.12.18s3.783-.005,6.3-.187a2.575,2.575,0,0,0,1.8-.762,3.891,3.891,0,0,0,.716-1.787A27.243,27.243,0,0,0,21,14.51V13.144a27.214,27.214,0,0,0-.18-2.913Z" transform="translate(385 781.17)" fill="#fff" fill-rule="evenodd"/>
  </g>
</svg>
