<svg xmlns="http://www.w3.org/2000/svg" width="30" height="30" viewBox="0 0 30 30">
  <g id="Group_292" data-name="Group 292" transform="translate(-466 -780)">
    <rect id="Rectangle_11933" data-name="Rectangle 11933" width="30" height="30" rx="5" transform="translate(466 780)" fill="#89888c"/>
    <path id="instagram" d="M12,9A3,3,0,0,0,9,6,3,3,0,0,0,6,9a3,3,0,0,0,3,3,3,3,0,0,0,3-3Zm1.617,0A4.6,4.6,0,0,1,9,13.617,4.6,4.6,0,0,1,4.383,9,4.6,4.6,0,0,1,9,4.383,4.6,4.6,0,0,1,13.617,9Zm1.266-4.8a1.078,1.078,0,1,1-1.84-.761,1.078,1.078,0,0,1,1.84.761ZM9,1.617l-.9-.006q-.815-.006-1.237,0t-1.131.035a9.242,9.242,0,0,0-1.207.117,4.657,4.657,0,0,0-.838.217A3.065,3.065,0,0,0,1.98,3.691a4.7,4.7,0,0,0-.217.838,9.242,9.242,0,0,0-.117,1.207q-.029.709-.035,1.131t0,1.237q.006.815.006.9t-.006.9q-.006.815,0,1.236t.035,1.131a9.241,9.241,0,0,0,.117,1.207,4.675,4.675,0,0,0,.217.837A3.065,3.065,0,0,0,3.691,16.02a4.7,4.7,0,0,0,.838.217,9.241,9.241,0,0,0,1.207.117q.709.029,1.131.035t1.237,0l.9-.006.9.006q.815.006,1.236,0t1.131-.035a9.24,9.24,0,0,0,1.207-.117,4.7,4.7,0,0,0,.838-.217,3.065,3.065,0,0,0,1.711-1.711,4.7,4.7,0,0,0,.217-.838,9.242,9.242,0,0,0,.117-1.207q.029-.709.035-1.131t0-1.237q-.006-.814-.006-.9t.006-.9q.006-.815,0-1.237t-.035-1.131a9.241,9.241,0,0,0-.117-1.207,4.613,4.613,0,0,0-.218-.837A3.065,3.065,0,0,0,14.309,1.98a4.7,4.7,0,0,0-.838-.217,9.241,9.241,0,0,0-1.207-.117q-.709-.029-1.131-.035t-1.237,0L9,1.618ZM18,9q0,2.684-.058,3.715a5.5,5.5,0,0,1-1.453,3.774,5.5,5.5,0,0,1-3.774,1.453Q11.684,18,9,18t-3.715-.058a5.5,5.5,0,0,1-3.774-1.453A5.5,5.5,0,0,1,.059,12.715Q0,11.684,0,9T.059,5.285A5.5,5.5,0,0,1,1.512,1.512,5.5,5.5,0,0,1,5.285.059Q6.317,0,9,0t3.715.059a5.5,5.5,0,0,1,3.774,1.453,5.5,5.5,0,0,1,1.453,3.774Q18,6.317,18,9Z" transform="translate(472 786)" fill="#fff"/>
  </g>
</svg>
