<svg xmlns="http://www.w3.org/2000/svg" width="30" height="30" viewBox="0 0 30 30">
  <g id="Group_293" data-name="Group 293" transform="translate(-508 -780)">
    <rect id="Rectangle_11934" data-name="Rectangle 11934" width="30" height="30" rx="5" transform="translate(508 780)" fill="#89888c"/>
    <path id="linkedin" d="M4.086,17.206V5.6H.227V17.206ZM2.157,4.011A2.012,2.012,0,1,0,2.183,0a2.011,2.011,0,1,0-.05,4.011h.025Zm4.064,13.2H10.08V10.723a2.641,2.641,0,0,1,.127-.941,2.112,2.112,0,0,1,1.98-1.411c1.4,0,1.955,1.064,1.955,2.625v6.211H18V10.55c0-3.566-1.9-5.225-4.442-5.225a3.843,3.843,0,0,0-3.5,1.956h.026V5.6H6.222c.05,1.089,0,11.609,0,11.609Z" transform="translate(514 786.397)" fill="#fff"/>
  </g>
</svg>
