<svg xmlns="http://www.w3.org/2000/svg" width="30" height="30" viewBox="0 0 30 30">
  <g id="Group_294" data-name="Group 294" transform="translate(-550 -780)">
    <rect id="Rectangle_11935" data-name="Rectangle 11935" width="30" height="30" rx="5" transform="translate(550 780)" fill="#89888c"/>
    <path id="pinterest" d="M4.183,7.137a3.184,3.184,0,0,1,.592-1.943,1.742,1.742,0,0,1,1.436-.8,1.276,1.276,0,0,1,1.077.465A1.811,1.811,0,0,1,7.648,6a5.571,5.571,0,0,1-.127,1.056q-.169.592-.422,1.436-.254.8-.38,1.31a1.537,1.537,0,0,0,.317,1.458,1.729,1.729,0,0,0,1.373.613,2.787,2.787,0,0,0,2.43-1.669,8.031,8.031,0,0,0,.951-4.035,3.962,3.962,0,0,0-1.162-2.958A4.478,4.478,0,0,0,7.352,2.067a5.092,5.092,0,0,0-3.824,1.5A5,5,0,0,0,2.07,7.18a3.253,3.253,0,0,0,.718,2.113.587.587,0,0,1,.169.592,5.806,5.806,0,0,0-.211.845A.465.465,0,0,1,2.514,11a.486.486,0,0,1-.317.021A3.184,3.184,0,0,1,.549,9.462,5.6,5.6,0,0,1,0,6.926,6.108,6.108,0,0,1,.3,5.067a6.239,6.239,0,0,1,.929-1.8A7.5,7.5,0,0,1,2.747,1.729,7.032,7.032,0,0,1,4.9.652,9.045,9.045,0,0,1,7.648.25a7.489,7.489,0,0,1,2.767.507A6.393,6.393,0,0,1,12.57,2.109a6.121,6.121,0,0,1,1.352,1.965,5.736,5.736,0,0,1,.486,2.3A8.3,8.3,0,0,1,12.8,11.616a5.01,5.01,0,0,1-4.141,2.07,3.415,3.415,0,0,1-1.585-.38,2.333,2.333,0,0,1-1.035-.929q-.634,2.451-.761,2.915A9.853,9.853,0,0,1,3.761,18.25H3.042A10.3,10.3,0,0,1,3.127,14.7L4.521,8.87A4.042,4.042,0,0,1,4.183,7.137Z" transform="translate(557.796 785.75)" fill="#fff"/>
  </g>
</svg>
