<svg id="Logo" xmlns="http://www.w3.org/2000/svg" xmlns:xlink="http://www.w3.org/1999/xlink" width="208.172" height="45" viewBox="0 0 208.172 45">
  <defs>
    <clipPath id="clip-path">
      <rect id="Rectangle_1554" data-name="Rectangle 1554" width="208.172" height="45" fill="none"/>
    </clipPath>
  </defs>
  <g id="Group_2510" data-name="Group 2510" clip-path="url(#clip-path)">
    <path id="Path_1130" data-name="Path 1130" d="M64.692,21.284c-.24-1.323-.473-2.644-.593-3.987a27.524,27.524,0,0,1,.01-5.3,14.764,14.764,0,0,1,1.533-5.521A10.352,10.352,0,0,1,72.8.816a7.922,7.922,0,0,1,9.37,6.129,8.272,8.272,0,0,1-1.688,6.314,8.865,8.865,0,0,1-5.768,3.533,30.829,30.829,0,0,0-5.818,1.762c-.283.119-.558.255-.856.353a6.232,6.232,0,0,1,1.6-1.315A22.342,22.342,0,0,1,74.3,15.542a7.765,7.765,0,0,0,4.352-3.395,5.451,5.451,0,0,0-3.4-7.946,5.343,5.343,0,0,0-3.67.586,10.339,10.339,0,0,0-5,6.038,32.915,32.915,0,0,0-1.433,6.627c-.16,1.273-.317,2.547-.381,3.83q-.04.074-.082,0" transform="translate(-41.557 -0.421)" fill="#6f875d"/>
    <path id="Path_1131" data-name="Path 1131" d="M52.854,60.822A19.5,19.5,0,0,1,56.033,63.7a22.237,22.237,0,0,1,4.424,6.655,10.98,10.98,0,0,1-.463,10.065,7.777,7.777,0,0,1-7.927,4.047,7.16,7.16,0,0,1-6.451-5.85,9.044,9.044,0,0,1,.659-6.256A19.944,19.944,0,0,1,48.207,69.7a31.053,31.053,0,0,0,3.378-5.176,3.174,3.174,0,0,1-.28,1.683,18.253,18.253,0,0,1-2.271,4.461A8.637,8.637,0,0,0,47.4,75.627,5.34,5.34,0,0,0,51.755,80.9a5.012,5.012,0,0,0,5.906-3.247,10.466,10.466,0,0,0,.033-7.864,42.365,42.365,0,0,0-4.366-8.234c-.157-.245-.315-.489-.473-.733" transform="translate(-29.453 -39.508)" fill="#6f875d"/>
    <path id="Path_1132" data-name="Path 1132" d="M33.523,20.975c-4.291-.456-8.409-1.454-12.021-3.957a11.283,11.283,0,0,1-4.677-6.863A8.144,8.144,0,0,1,23.453.085a6.764,6.764,0,0,1,5.07,1.264,9.206,9.206,0,0,1,3.921,5.861,13.307,13.307,0,0,1,0,3.231,30.094,30.094,0,0,0,.148,6.786,3.286,3.286,0,0,1-.583-1.159,19.222,19.222,0,0,1-.843-5.917,7.611,7.611,0,0,0-1.906-5.122A5,5,0,0,0,24.2,3.4,4.971,4.971,0,0,0,20.117,7.2a6.966,6.966,0,0,0,.592,4.384,10.614,10.614,0,0,0,3.769,4.589,41.57,41.57,0,0,0,9.209,4.705c.02.162-.069.132-.164.094" transform="translate(-10.773 0)" fill="#9e458f"/>
    <path id="Path_1133" data-name="Path 1133" d="M22.954,55.529a28.138,28.138,0,0,1-3.81,6.668,16.424,16.424,0,0,1-5.261,4.685,11.121,11.121,0,0,1-5.276,1.309,8.485,8.485,0,0,1-6.121-2.325A7.968,7.968,0,0,1,.053,60.861c-.541-4.737,3.205-7.468,6.325-8.275a8.856,8.856,0,0,1,5.727.508A33.689,33.689,0,0,0,18.4,55.08a5.235,5.235,0,0,1,.635.129,3.941,3.941,0,0,1-1.258.207,16.853,16.853,0,0,1-4.9-.737,10.733,10.733,0,0,0-3.69-.572A5.759,5.759,0,0,0,4.11,56.986a5.211,5.211,0,0,0,3.937,7.85,10.361,10.361,0,0,0,7.805-2.279,39.61,39.61,0,0,0,6.033-5.98c.326-.381.645-.768.968-1.153.088-.018.138,0,.1.105" transform="translate(0 -33.985)" fill="#de6498"/>
    <path id="Path_1134" data-name="Path 1134" d="M157.4,105.456c.844-.545,1.166-1.111,1.032-1.766-.153-.742-.667-1.162-1.613-1.342a7.222,7.222,0,0,0-2.057.012c-.282.028-.369.11-.369.392q.018,3.032,0,6.068c0,.263.083.361.33.385a6.782,6.782,0,0,0,2.653-.165,1.7,1.7,0,0,0,1.272-1.362c.2-1.013-.126-1.617-1.248-2.222m-2.151-1.291v-.388c0-.856,0-.86.887-.832a1.761,1.761,0,0,1,1.021.279,1.039,1.039,0,0,1-.047,1.68,1.379,1.379,0,0,1-.369.192,1.914,1.914,0,0,1-1.413.027c-.239-.122-.035-.667-.078-.958m1.8,4.22a3.181,3.181,0,0,1-1.519.192c-.192-.012-.279-.09-.279-.287,0-.722.008-1.44,0-2.163,0-.2.063-.287.267-.271.141.012.282,0,.479,0a2.136,2.136,0,0,1,1.084.216,1.28,1.28,0,0,1-.031,2.312" transform="translate(-100.287 -66.435)" fill="#6f875d"/>
    <path id="Path_1135" data-name="Path 1135" d="M262.341,104.986c0,1-.011,2.009.006,3.012.006.32-.034.465-.419.468-.4,0-.447-.152-.445-.49.014-1.851-.007-3.7.017-5.554.005-.4-.158-.52-.5-.556a1.2,1.2,0,0,0-1.386.783c-.266.739-.162.9.607.9.239,0,.447-.045.445.341,0,.4-.235.321-.459.325a2.021,2.021,0,0,1-.329,0c-.3-.043-.37.081-.367.367.015,1.161-.009,2.322.015,3.483.007.36-.138.4-.437.4s-.438-.054-.431-.4c.023-1.129,0-2.259.015-3.389,0-.326-.044-.52-.425-.453-.266.046-.306-.108-.307-.333s.047-.353.311-.336c.182.011.418.091.419-.261.005-1.708,1.367-2.266,2.748-2.046.927.148.923.171.923,1.114Z" transform="translate(-167.55 -65.73)" fill="#6f875d"/>
    <path id="Path_1136" data-name="Path 1136" d="M475.494,104.766a1.973,1.973,0,0,0-2.116-1.142,2.015,2.015,0,0,0-1.374.863c0-.977-.008-1.837.008-2.7,0-.251-.055-.338-.334-.361-.436-.032-.538.118-.534.542.016,2.088,0,4.176-.016,6.26,0,.192-.094.388.228.373.239-.012.526.067.522-.33,0-.122.016-.244.032-.451a2.08,2.08,0,0,0,3.666-.589,3.206,3.206,0,0,0-.082-2.469m-.82,2.378a1.328,1.328,0,0,1-1.566.8,1.356,1.356,0,0,1-1.1-1.378v-.491a1.95,1.95,0,0,1,.149-.942,1.377,1.377,0,0,1,1.221-.828,1.284,1.284,0,0,1,1.26.75,2.345,2.345,0,0,1,.039,2.084" transform="translate(-306.022 -65.883)" fill="#6f875d"/>
    <path id="Path_1137" data-name="Path 1137" d="M295.871,107.922c-.5,1.553-1.005,3.062-1.468,4.583-.1.339-.309.274-.535.293a.378.378,0,0,1-.468-.321c-.347-1.161-.757-2.3-1.07-3.588-.153.525-.268.957-.406,1.382-.241.742-.52,1.473-.734,2.223-.094.331-.3.3-.531.3s-.389-.018-.472-.309c-.433-1.514-.9-3.018-1.352-4.522.037-.028.057-.057.079-.059.784-.04.788-.041.982.7.279,1.069.551,2.139.839,3.261.383-1.227.754-2.4,1.111-3.577.081-.266.177-.409.5-.413s.421.153.5.412c.344,1.164.7,2.325,1.066,3.546.3-1.1.587-2.151.879-3.2.217-.779.222-.777,1.078-.719" transform="translate(-187.618 -70.076)" fill="#6f875d"/>
    <path id="Path_1138" data-name="Path 1138" d="M277.587,108.1a2.373,2.373,0,0,0-2.528-.235,2.321,2.321,0,0,0-1.326,2.159,2.375,2.375,0,1,0,4.718.1,2.263,2.263,0,0,0-.864-2.025m-.3,3.234a1.339,1.339,0,0,1-2.394-.039,2.286,2.286,0,0,1,.015-2.28,1.3,1.3,0,0,1,1.225-.726,1.273,1.273,0,0,1,1.189.761,2.078,2.078,0,0,1,.263,1.087,1.98,1.98,0,0,1-.3,1.2" transform="translate(-177.804 -69.898)" fill="#6f875d"/>
    <path id="Path_1139" data-name="Path 1139" d="M523.012,107.653a2.6,2.6,0,0,0-.765,4.973,4.048,4.048,0,0,0,2.131-.055c.3-.078.353-.192.271-.491-.09-.334-.263-.169-.424-.137-.184.035-.365.09-.549.118a1.72,1.72,0,0,1-2.1-1.2c-.094-.342-.078-.538.361-.506s.879.008,1.319.008c.471,0,.942,0,1.409,0,.153,0,.3.023.346-.212a2.119,2.119,0,0,0-2-2.488m.9,2.076c-.781-.008-1.566,0-2.378,0,.239-1.068.722-1.488,1.562-1.413a1.233,1.233,0,0,1,1.068,1.181c0,.192-.075.235-.251.235" transform="translate(-338.214 -69.928)" fill="#6f875d"/>
    <path id="Path_1140" data-name="Path 1140" d="M171.623,107.659a2.586,2.586,0,0,0-.852,4.977,4.006,4.006,0,0,0,2.088-.059c.271-.075.373-.157.291-.475-.094-.373-.279-.18-.451-.145s-.337.078-.506.1a1.727,1.727,0,0,1-2.127-1.229c-.083-.318-.063-.506.349-.479.44.028.879.008,1.319.008.487,0,.973,0,1.46,0,.134,0,.267.012.314-.192a2.147,2.147,0,0,0-1.884-2.5m.7,2.076c-.326-.027-.655-.008-.985-.008a7.544,7.544,0,0,0-.9.008c-.467.055-.428-.169-.31-.479a1.328,1.328,0,0,1,1.448-.942,1.186,1.186,0,0,1,1.056,1.029c.051.255.023.42-.314.392" transform="translate(-109.885 -69.93)" fill="#6f875d"/>
    <path id="Path_1141" data-name="Path 1141" d="M240.139,107.649a2.332,2.332,0,0,0-2.441,2.323,2.368,2.368,0,0,0,1.554,2.646,4.035,4.035,0,0,0,2.179-.059c.29-.078.286-.212.236-.467-.063-.338-.24-.2-.408-.157-.185.039-.365.09-.549.118a1.725,1.725,0,0,1-2.135-1.276c-.063-.279-.039-.452.322-.432.451.024.907.008,1.362.008.487,0,.973,0,1.46,0,.137,0,.267.008.31-.2a2.152,2.152,0,0,0-1.888-2.5m.632,2.08a9.375,9.375,0,0,0-.942-.008c-.346,0-.687,0-1.032,0-.122,0-.251.031-.232-.185a1.477,1.477,0,0,1,1.193-1.229,1.161,1.161,0,0,1,1.37.923c.1.341.082.538-.357.5" transform="translate(-154.392 -69.924)" fill="#6f875d"/>
    <path id="Path_1142" data-name="Path 1142" d="M312.644,107.652a2.33,2.33,0,0,0-2.39,2.328,2.362,2.362,0,0,0,1.558,2.642,4.019,4.019,0,0,0,2.174-.059c.294-.078.286-.22.235-.471-.067-.338-.244-.192-.412-.153-.185.039-.365.09-.549.122a1.732,1.732,0,0,1-2.135-1.284c-.059-.282-.032-.447.326-.428.455.024.911.008,1.366.008.471,0,.942,0,1.413,0,.145,0,.3.035.353-.2a2.141,2.141,0,0,0-1.939-2.5m.761,2.08c-.341-.027-.687-.008-1.032-.008a7.6,7.6,0,0,0-.848.008c-.448.051-.444-.149-.318-.475a1.331,1.331,0,0,1,1.444-.946,1.19,1.19,0,0,1,1.064,1.025c.047.251.035.424-.31.4" transform="translate(-201.522 -69.927)" fill="#6f875d"/>
    <path id="Path_1143" data-name="Path 1143" d="M489.1,107.653a2.6,2.6,0,0,0-.706,4.977,4.054,4.054,0,0,0,2.131-.063c.306-.078.337-.2.263-.491-.09-.337-.267-.161-.428-.13-.185.035-.365.087-.549.114a1.719,1.719,0,0,1-2.1-1.209c-.1-.349-.067-.534.365-.5s.848.008,1.272.008c.487,0,.974,0,1.46,0,.149,0,.3.02.341-.216a2.114,2.114,0,0,0-2.053-2.485m.793,2.08a9.378,9.378,0,0,0-.942-.008c-.346,0-.691,0-1.036,0-.118,0-.247.031-.228-.185a1.477,1.477,0,0,1,1.189-1.229,1.157,1.157,0,0,1,1.37.923c.106.341.082.538-.353.5" transform="translate(-316.22 -69.928)" fill="#6f875d"/>
    <path id="Path_1144" data-name="Path 1144" d="M426.179,107.875c.916-.065.916-.065,1.211.749q.533,1.471,1.066,2.942c0,.007.026.007.072.019q.546-1.623,1.094-3.253a.65.65,0,0,1,.9-.483c.173.041.143.118.1.231a52.2,52.2,0,0,1-2.225,5.456,2.785,2.785,0,0,1-1.425,1.3c-.167.067-.361.16-.381-.114-.015-.2-.374-.439.05-.613a2.222,2.222,0,0,0,.795-.572,1.389,1.389,0,0,0,.327-1.719c-.531-1.109-.938-2.279-1.4-3.424-.068-.17-.123-.345-.187-.525" transform="translate(-276.832 -70.031)" fill="#6f875d"/>
    <path id="Path_1145" data-name="Path 1145" d="M417.142,109.491a1.677,1.677,0,0,0-1.009-1.708,2.871,2.871,0,0,0-2.19.141c-.306.126-.18.33-.114.542.094.306.232.063.346.035.2-.055.381-.145.581-.184.781-.153,1.291.106,1.48.714.106.337.086.494-.349.5a3.275,3.275,0,0,0-1.915.534,1.555,1.555,0,0,0-.565,1.715,1.426,1.426,0,0,0,1.382.938,2.031,2.031,0,0,0,1.55-.691c.1.663.1.663.86.553-.1-1.028-.02-2.064-.055-3.093m-.844,1.2a1.222,1.222,0,0,1-1.138,1.366.776.776,0,0,1-.9-.573.9.9,0,0,1,.408-1.056,2.553,2.553,0,0,1,1.448-.31c.388.008.078.412.184.573" transform="translate(-268.488 -69.909)" fill="#6f875d"/>
    <path id="Path_1146" data-name="Path 1146" d="M369.041,109.485a1.684,1.684,0,0,0-1.617-1.833,3.22,3.22,0,0,0-1.248.165c-.624.208-.624.2-.389.8a7.261,7.261,0,0,1,.836-.282c.824-.185,1.393.129,1.543.812.059.267.02.389-.306.392a3.745,3.745,0,0,0-1.77.392,1.536,1.536,0,0,0-.757,1.919,1.514,1.514,0,0,0,1.833.832,3.047,3.047,0,0,0,1.091-.624c.067.64.106.663.832.53-.09-1.036-.028-2.072-.047-3.109m-.848,1.209a1.226,1.226,0,0,1-1.17,1.386.779.779,0,0,1-.852-.518.877.877,0,0,1,.267-1.02,2.315,2.315,0,0,1,1.6-.4c.306.008.079.392.153.553" transform="translate(-237.242 -69.923)" fill="#6f875d"/>
    <path id="Path_1147" data-name="Path 1147" d="M200.553,109.486a1.685,1.685,0,0,0-1.613-1.837,3.235,3.235,0,0,0-1.3.177c-.585.2-.6.247-.31.781a7.762,7.762,0,0,1,.8-.271c.824-.184,1.4.13,1.546.809.055.267.023.392-.306.4a3.727,3.727,0,0,0-1.766.392,1.534,1.534,0,0,0-.761,1.915,1.508,1.508,0,0,0,1.833.836,3.129,3.129,0,0,0,1.087-.616c.071.608.071.608.836.542-.09-1.056-.028-2.092-.047-3.124m-.848,1.189c0,.863-.467,1.389-1.2,1.4a.771.771,0,0,1-.832-.55.884.884,0,0,1,.3-1.012,2.355,2.355,0,0,1,1.562-.377c.334,0,.083.384.169.538" transform="translate(-127.798 -69.921)" fill="#6f875d"/>
    <path id="Path_1148" data-name="Path 1148" d="M381.143,108.429a2.2,2.2,0,0,1,1.9-.757,1.716,1.716,0,0,1,1.476,1.789c.038.97,0,1.943.015,2.915.006.352-.224.278-.408.266s-.469.136-.462-.26c.012-.705,0-1.411,0-2.116a4.639,4.639,0,0,0-.069-.841c-.111-.625-.423-.98-.92-1.015a1.223,1.223,0,0,0-1.335.87,2.657,2.657,0,0,0-.093.694c-.011.768-.027,1.537,0,2.3.016.392-.188.375-.459.375s-.427,0-.422-.361c.022-1.41.014-2.821,0-4.232,0-.259.081-.345.318-.309.185.028.479-.123.45.271-.01.135,0,.272,0,.408" transform="translate(-247.08 -69.928)" fill="#6f875d"/>
    <path id="Path_1149" data-name="Path 1149" d="M214.614,112.015c-.167.177-.256.286-.361.378a1.773,1.773,0,0,1-1.92.374,1.536,1.536,0,0,1-.978-1.479c-.045-1.034-.011-2.071-.025-3.107-.006-.429.3-.247.5-.277.221-.034.384-.012.376.3-.021.832-.008,1.664-.006,2.5a2.07,2.07,0,0,0,.056.558c.17.614.423.862.935.879a1.212,1.212,0,0,0,1.256-.854,2.772,2.772,0,0,0,.087-.7c.011-.753.025-1.508,0-2.26-.014-.361.1-.437.446-.444.367-.007.437.114.432.453-.018,1.35-.012,2.7,0,4.049,0,.273-.01.424-.359.423s-.453-.1-.413-.423a2.6,2.6,0,0,0-.02-.374" transform="translate(-137.274 -70.079)" fill="#6f875d"/>
    <path id="Path_1150" data-name="Path 1150" d="M502.376,104.086c0,.331.019.659-.006.984-.023.3.1.391.377.362.17-.018.345.006.516-.006.246-.016.409,0,.409.335s-.163.335-.409.336c-.888.005-.888.012-.888.918,0,.6-.011,1.191.005,1.786.02.706.216.885.907.87.159,0,.337-.034.306.217-.022.176.1.38-.214.477a1.344,1.344,0,0,1-1.852-1.386q-.023-1.245,0-2.491c.006-.291-.053-.449-.38-.4-.257.041-.389-.02-.392-.339,0-.344.175-.353.408-.322.3.04.4-.084.358-.368a.6.6,0,0,1,0-.094c0-.787,0-.787.85-.884" transform="translate(-325.277 -67.611)" fill="#6f875d"/>
    <path id="Path_1151" data-name="Path 1151" d="M512.587,104.1a7.606,7.606,0,0,1-.007.89c-.047.394.124.5.476.452.154-.019.314.01.469-.006.263-.027.354.068.356.339s-.112.331-.363.335c-.931.015-.931.024-.931.967,0,.58-.011,1.16.006,1.739.02.7.218.876.911.868.13,0,.319-.059.3.172-.018.186.133.416-.213.521a1.338,1.338,0,0,1-1.847-1.344c-.022-.845-.016-1.692,0-2.538.006-.3-.065-.444-.384-.392-.264.042-.383-.031-.388-.344-.005-.352.187-.347.413-.317.3.04.395-.1.354-.373a.647.647,0,0,1,0-.094c0-.79,0-.79.85-.876" transform="translate(-331.91 -67.619)" fill="#6f875d"/>
    <path id="Path_1152" data-name="Path 1152" d="M455.08,104.076c0,.373.013.7,0,1.029-.013.247.075.342.322.321.187-.016.376,0,.563,0,.238-.011.416-.012.415.328,0,.324-.148.342-.4.344-.894,0-.895.012-.894.911,0,.611-.014,1.223.007,1.833.024.671.228.845.9.831.152,0,.343-.047.311.21-.022.175.11.381-.207.482a1.345,1.345,0,0,1-1.858-1.378c-.016-.83-.012-1.661,0-2.491,0-.281-.035-.457-.373-.4-.247.039-.4,0-.4-.332s.159-.362.4-.329c.286.039.414-.066.364-.36a.6.6,0,0,1,0-.094c0-.787,0-.787.85-.894" transform="translate(-294.554 -67.604)" fill="#6f875d"/>
    <path id="Path_1153" data-name="Path 1153" d="M186.118,112.736a2.315,2.315,0,0,1-2.418-2.426,2.488,2.488,0,0,1,2.438-2.663,4.734,4.734,0,0,1,1.023.109c.294.052.386.21.282.5-.071.2-.095.321-.395.218a1.777,1.777,0,0,0-2.188.666,2.043,2.043,0,0,0,.291,2.463,1.813,1.813,0,0,0,1.885.315c.163-.049.354-.173.4.147.03.219.126.425-.21.507a4.074,4.074,0,0,1-1.106.17" transform="translate(-119.326 -69.923)" fill="#6f875d"/>
    <path id="Path_1154" data-name="Path 1154" d="M356.108,108.573a2.483,2.483,0,0,0-1.122-.224,1.857,1.857,0,0,0-.05,3.69,2.311,2.311,0,0,0,.873-.128c.114-.035.292-.2.343.091.036.2.2.443-.122.545a2.8,2.8,0,0,1-2.682-.29,2.41,2.41,0,0,1-.877-2.394,2.573,2.573,0,0,1,3.505-2.075c.551.165.09.5.133.783" transform="translate(-228.931 -69.927)" fill="#6f875d"/>
    <path id="Path_1155" data-name="Path 1155" d="M403.5,112.722a2.758,2.758,0,0,1-.92-.149c-.294-.082-.44-.189-.306-.559.144-.4.33-.162.5-.1a2.191,2.191,0,0,0,.917.148.757.757,0,0,0,.75-.532.722.722,0,0,0-.4-.864,4.551,4.551,0,0,0-.594-.275c-.916-.388-1.3-.955-1.1-1.654a1.623,1.623,0,0,1,1.892-1.089c.184.027.362.094.545.134.286.062.364.178.262.493-.115.354-.274.214-.468.134a1.44,1.44,0,0,0-.829-.094.678.678,0,0,0-.59.531.593.593,0,0,0,.325.669,5.683,5.683,0,0,0,.635.3c.9.378,1.318.967,1.187,1.688a1.617,1.617,0,0,1-1.8,1.226" transform="translate(-261.271 -69.909)" fill="#6f875d"/>
    <path id="Path_1156" data-name="Path 1156" d="M227.765,112.729a3.076,3.076,0,0,1-.964-.163c-.312-.085-.37-.218-.266-.54.128-.4.323-.172.5-.108a2.141,2.141,0,0,0,.917.15.754.754,0,0,0,.765-.573.724.724,0,0,0-.408-.821,4.573,4.573,0,0,0-.594-.276c-.884-.374-1.286-.944-1.127-1.61a1.624,1.624,0,0,1,1.863-1.14,5.6,5.6,0,0,1,.592.137c.279.062.376.169.267.49-.115.34-.262.23-.465.141a1.426,1.426,0,0,0-.782-.1.69.69,0,0,0-.64.534.609.609,0,0,0,.359.7,5.958,5.958,0,0,0,.6.271c.922.385,1.341,1,1.18,1.73a1.617,1.617,0,0,1-1.789,1.185" transform="translate(-147.119 -69.916)" fill="#6f875d"/>
    <path id="Path_1157" data-name="Path 1157" d="M336.139,112.719a3.434,3.434,0,0,1-1.062-.168c-.337-.092-.336-.256-.241-.553.116-.366.3-.165.463-.1a2.1,2.1,0,0,0,.962.16.752.752,0,0,0,.739-.545.711.711,0,0,0-.378-.833,4.545,4.545,0,0,0-.635-.3c-.911-.388-1.283-.957-1.08-1.663a1.624,1.624,0,0,1,1.9-1.074,3.473,3.473,0,0,1,.5.121c.375.117.436.371.206.691-.116.162-.2.024-.266-.006a1.684,1.684,0,0,0-.867-.151.7.7,0,0,0-.66.51.612.612,0,0,0,.369.733c.233.125.481.222.722.332a1.468,1.468,0,0,1,1.045,1.632,1.566,1.566,0,0,1-1.581,1.211.987.987,0,0,1-.136,0" transform="translate(-217.464 -69.907)" fill="#6f875d"/>
    <path id="Path_1158" data-name="Path 1158" d="M536.883,108.56a1.8,1.8,0,0,1,1.325-.908c.2-.024.368.017.3.263-.052.2.2.528-.224.583a1.311,1.311,0,0,0-1.274,1.427c-.014.783-.028,1.566,0,2.347.016.39-.18.375-.453.377s-.416-.021-.417-.367c0-1.439.064-2.878-.043-4.315-.016-.213.11-.248.26-.217.181.037.474-.163.514.2a5.722,5.722,0,0,1,0,.606" transform="translate(-348.236 -69.923)" fill="#6f875d"/>
    <path id="Path_1159" data-name="Path 1159" d="M326.552,108.637a1.5,1.5,0,0,1,1.225-.983c.17-.023.393-.036.325.234-.052.207.248.566-.244.61a1.3,1.3,0,0,0-1.251,1.4c-.017.782-.023,1.566,0,2.347.012.348-.116.412-.428.4-.29-.007-.443-.025-.442-.393,0-1.423.061-2.847-.04-4.268-.018-.246.114-.272.279-.24s.477-.167.5.226a1.613,1.613,0,0,0,.075.663" transform="translate(-211.564 -69.921)" fill="#6f875d"/>
    <path id="Path_1160" data-name="Path 1160" d="M448.375,110.326c0-.688.024-1.378-.01-2.064-.019-.381.192-.349.434-.344s.453-.059.447.334q-.035,2.111,0,4.222c.006.379-.195.349-.437.344s-.462.061-.443-.335c.034-.718.01-1.439.01-2.158" transform="translate(-291.243 -70.098)" fill="#6f875d"/>
    <path id="Path_1161" data-name="Path 1161" d="M561.982,113.8H552.84c0-.032,0-.064,0-.1h9.142v.1" transform="translate(-359.107 -73.858)" fill="#6f875d"/>
    <path id="Path_1162" data-name="Path 1162" d="M112.555,113.695h9.1c0,.025,0,.05,0,.075h-9.1v-.075" transform="translate(-73.112 -73.853)" fill="#6f875d"/>
    <path id="Path_1163" data-name="Path 1163" d="M449.061,103.073a.52.52,0,0,1-.529.572.543.543,0,0,1-.048-1.085.531.531,0,0,1,.578.513" transform="translate(-290.984 -66.62)" fill="#6f875d"/>
    <path id="Path_1164" data-name="Path 1164" d="M64.921,59.646l.164-.094c.073-.014.156.085.221-.019a.11.11,0,0,0,.082,0c.012.11.023.22-.092.289l0,0c-.081-.156-.286-.049-.378-.18" transform="translate(-42.171 -38.67)" fill="#e2cfdb"/>
    <path id="Path_1165" data-name="Path 1165" d="M65.315,60.749l-.1-.105a.455.455,0,0,1,.275-.283l0,0a.629.629,0,0,1-.17.392" transform="translate(-42.361 -39.206)" fill="#e588b0"/>
    <path id="Path_1166" data-name="Path 1166" d="M468.5,77.693a1.321,1.321,0,1,1-1.269-1.4,1.3,1.3,0,0,1,1.269,1.4" transform="translate(-302.609 -49.56)" fill="#9e458f"/>
    <path id="Path_1167" data-name="Path 1167" d="M260.594,43.308c.647,0,1.243.014,1.837-.007a.355.355,0,0,1,.4.291c.936,2.683,2.064,5.3,2.861,8.032a2.023,2.023,0,0,0,.12.244c.194-.648.352-1.235.544-1.81.711-2.132,1.438-4.26,2.147-6.393a.46.46,0,0,1,.538-.365c.768.025,1.538-.013,2.306.018.367.014.457-.11.434-.453a4.8,4.8,0,0,1,.458-2.369,3.867,3.867,0,0,1,2.5-2.179,7.3,7.3,0,0,1,4.782.25.5.5,0,0,1,.371.548q-.015,7.25,0,14.5c0,.357-.095.466-.445.436a6.757,6.757,0,0,0-1.082,0c-.322.025-.389-.1-.386-.4.014-1.334.006-2.668.006-4q0-4.685.005-9.369c0-.3-.034-.505-.372-.591a4.134,4.134,0,0,0-1.86-.095,2.608,2.608,0,0,0-2.086,2.7c-.052,1.016-.052,1.016.974,1.016.377,0,.755.023,1.129-.007.345-.027.414.111.412.429,0,1.085.007,1.085-1.067,1.085a9.255,9.255,0,0,1-.941-.006c-.4-.041-.529.064-.525.5.024,2.746,0,5.493.024,8.239,0,.429-.118.547-.522.5a4.3,4.3,0,0,0-.94,0c-.394.045-.456-.127-.455-.476.013-2.746,0-5.493.015-8.239,0-.383-.046-.587-.5-.531-.382.047-.873-.128-1.132.056s-.3.693-.443,1.056c-1.107,2.788-2.062,5.637-3.308,8.369a9.18,9.18,0,0,1-2.615,3.677,5.754,5.754,0,0,1-1.77.943c-.242.077-.375.046-.433-.233a5.672,5.672,0,0,0-.277-.943c-.112-.28-.061-.4.231-.522a5.821,5.821,0,0,0,2.9-2.761,1.536,1.536,0,0,0,.06-1.417c-1.239-3.037-2.452-6.085-3.674-9.129-.075-.185-.143-.373-.228-.594" transform="translate(-169.274 -24.701)" fill="#9e458f"/>
    <path id="Path_1168" data-name="Path 1168" d="M122.115,49.092a4.533,4.533,0,0,0-2.206-1.366c.29-.149.526-.263.753-.392A3.307,3.307,0,0,0,122.3,43.3a3.49,3.49,0,0,0-2.7-2.3,14.593,14.593,0,0,0-5.6-.055c-.385.047-.459.2-.456.557q.018,6.848.008,13.7a1.538,1.538,0,0,1,0,.189c-.032.212.055.286.271.334a7.946,7.946,0,0,0,1.217.094,12.287,12.287,0,0,0,5.283-.514,3.978,3.978,0,0,0,1.794-6.213m-6.284-6.826a9.018,9.018,0,0,1,2.85.1,2.175,2.175,0,0,1,1.837,2.127,2.391,2.391,0,0,1-1.825,2.426,10.9,10.9,0,0,1-3.03.2c-.251.008-.212-.173-.212-.326,0-.7,0-1.409,0-2.116,0-.64.02-1.284-.008-1.927-.012-.314.087-.463.392-.483m4.4,11.073a3.717,3.717,0,0,1-2.422,1,15.781,15.781,0,0,1-1.927,0c-.3,0-.463-.122-.444-.487.032-.816.008-1.633.008-2.449V48.915c0-.173-.028-.365.239-.369a9.559,9.559,0,0,1,3.478.381,2.751,2.751,0,0,1,1.067,4.412" transform="translate(-73.754 -26.439)" fill="#9e458f"/>
    <path id="Path_1169" data-name="Path 1169" d="M537.325,54.514c1.595-2.707,5.451-2.6,6.521.155a7.456,7.456,0,0,1,1.124-1.3,3.542,3.542,0,0,1,5.786,1.919,6.23,6.23,0,0,1,.21,1.624c-.01,2.04-.013,4.079,0,6.119,0,.352-.086.476-.442.44a4.706,4.706,0,0,0-.94,0c-.4.041-.532-.063-.526-.5.027-1.961.013-3.922.007-5.883a4.139,4.139,0,0,0-.3-1.557,2.168,2.168,0,0,0-3.456-.881,2.687,2.687,0,0,0-1.045,2.166c0,2.071-.01,4.142.006,6.212,0,.346-.076.478-.437.443a5.28,5.28,0,0,0-1.034,0c-.373.038-.433-.115-.431-.45.015-1.9.006-3.8.009-5.7a5.474,5.474,0,0,0-.156-1.394,2.122,2.122,0,0,0-1.682-1.758,2.35,2.35,0,0,0-2.387.986,3.169,3.169,0,0,0-.669,2.009c.006,1.946-.008,3.891.01,5.836,0,.367-.089.506-.464.463-.462-.053-1.065.194-1.355-.1-.267-.268-.071-.865-.073-1.316q-.016-4.142-.016-8.284c0-.078,0-.157,0-.235-.062-.808-.063-.808.772-.808s.836,0,.906.808c.026.3.033.593.054.98" transform="translate(-347.873 -34.118)" fill="#9e458f"/>
    <path id="Path_1170" data-name="Path 1170" d="M358.656,55.159c-.211.789-.372,1.469-.574,2.138-.631,2.092-1.377,4.147-2.07,6.218a.369.369,0,0,1-.433.306c-.469-.02-1.024.129-1.382-.075-.34-.194-.328-.8-.459-1.229q-1.365-4.479-2.706-8.965c-.044-.146-.081-.295-.129-.471.564,0,1.1.011,1.63,0,.263-.008.375.069.443.345.682,2.756,1.5,5.478,2.073,8.261a1.527,1.527,0,0,0,.117.259c.741-2.878,1.715-5.627,2.571-8.412a.543.543,0,0,1,.648-.457c1.138.023,1.148,0,1.482,1.1.781,2.562,1.658,5.1,2.305,7.83.241-1.005.43-1.892.67-2.766.534-1.942,1.1-3.876,1.638-5.815.067-.242.152-.366.437-.349.5.029,1,.008,1.582.008-.2.645-.388,1.257-.585,1.867-.91,2.822-1.828,5.642-2.73,8.467-.095.3-.217.446-.554.41-.45-.048-1.014.171-1.327-.082-.286-.231-.31-.789-.442-1.205-.76-2.411-1.621-4.791-2.206-7.379" transform="translate(-227.936 -34.474)" fill="#9e458f"/>
    <path id="Path_1171" data-name="Path 1171" d="M330.871,56.636c-.758-3.772-4.471-4.812-7.242-3.654-2.269.945-3.066,2.845-3.168,5.145a6.4,6.4,0,0,0,.082.989,4.764,4.764,0,0,0,3.482,4.282,5.181,5.181,0,0,0,5.66-1.5,5.792,5.792,0,0,0,1.186-5.259m-2.579,4.1a2.973,2.973,0,0,1-5.1.051,5.229,5.229,0,0,1,.043-5.472,2.88,2.88,0,0,1,2.535-1.291,2.722,2.722,0,0,1,2.422,1.248,5.165,5.165,0,0,1,.1,5.464" transform="translate(-208.161 -34.124)" fill="#9e458f"/>
    <path id="Path_1172" data-name="Path 1172" d="M511.72,56.621c-.718-3.7-4.392-4.781-7.21-3.642a5.274,5.274,0,0,0-3.176,5.252,5.536,5.536,0,0,0,.071.871,5.2,5.2,0,0,0,8.372,3.509c2.029-1.507,2.394-3.67,1.943-5.99m-2.661,4.255a2.98,2.98,0,0,1-5.138-.3A4.741,4.741,0,0,1,503.3,58.1a4.627,4.627,0,0,1,1.02-3.05,3,3,0,0,1,4.667.137,5.155,5.155,0,0,1,.067,5.691" transform="translate(-325.65 -34.133)" fill="#9e458f"/>
    <path id="Path_1173" data-name="Path 1173" d="M404.03,53.9a4.665,4.665,0,0,0-6.578-.094,6.1,6.1,0,0,0-1.668,5.224,4.628,4.628,0,0,0,1.963,3.631c2.135,1.421,4.4,1.107,6.672.392.169-.051.2-.185.157-.341-.079-.3-.177-.6-.236-.9-.035-.2-.118-.212-.279-.145a7.458,7.458,0,0,1-3.034.459,3.4,3.4,0,0,1-3.415-3.254c-.008-.318.055-.432.4-.424,1.127.023,2.257.008,3.387.008s2.257-.012,3.387.008c.3,0,.428-.1.444-.384a5.675,5.675,0,0,0-1.2-4.176m-1.009,3.144c-.848-.008-1.7,0-2.54,0s-1.7,0-2.543,0c-.141,0-.318.059-.31-.212a3.315,3.315,0,0,1,2.351-2.818c2.057-.448,3.277.891,3.383,2.744.016.287-.133.291-.341.291" transform="translate(-257.061 -34.1)" fill="#9e458f"/>
    <path id="Path_1174" data-name="Path 1174" d="M178.763,61.623c.624-2.184,1.39-4.276,2.093-6.388.2-.593.4-1.183.587-1.78.084-.271.205-.411.522-.384a7.736,7.736,0,0,0,1.222,0c.382-.029.452.074.311.43-.512,1.292-.991,2.6-1.5,3.89-.975,2.469-1.8,5-3,7.377a7.824,7.824,0,0,1-2.605,3.207c-.131.086-.26.176-.395.254-1.234.711-1.618.517-1.809-.9-.034-.247.127-.271.288-.342a5.9,5.9,0,0,0,2.92-2.806,1.506,1.506,0,0,0,.05-1.373c-1.243-3.051-2.465-6.111-3.693-9.168-.069-.172-.127-.348-.205-.564.664,0,1.287.01,1.91,0,.278-.007.278.2.336.366.949,2.661,2.057,5.266,2.851,7.982a1.12,1.12,0,0,0,.118.2" transform="translate(-112.731 -34.471)" fill="#9e458f"/>
    <path id="Path_1175" data-name="Path 1175" d="M234.338,54.563a4.061,4.061,0,0,1,3.553-1.986,3.621,3.621,0,0,1,3.68,2.992,7.7,7.7,0,0,1,.162,1.584c0,1.977-.008,3.954.006,5.931,0,.328-.087.444-.42.42a7.4,7.4,0,0,0-1.128,0c-.336.027-.417-.092-.415-.418.014-1.993,0-3.985.008-5.978a4.072,4.072,0,0,0-.139-1.02,2.24,2.24,0,0,0-1.691-1.819,2.652,2.652,0,0,0-2.746.9,2.749,2.749,0,0,0-.7,1.892c0,2.008-.006,4.017.009,6.025,0,.33-.083.442-.417.416a7.441,7.441,0,0,0-1.128,0c-.335.025-.421-.1-.418-.422q.022-2.659,0-5.319-.014-2.375-.068-4.75c0-.19.032-.264.217-.252.047,0,.094,0,.141,0,.423.007.929-.127,1.245.061.339.2.071.752.154,1.141.035.168.051.34.089.6" transform="translate(-151.019 -34.152)" fill="#9e458f"/>
    <path id="Path_1176" data-name="Path 1176" d="M152.05,62.022a4.1,4.1,0,0,1-2.354,1.8c-2.268.623-4.565-.319-4.858-3.379-.224-2.343-.045-4.7-.084-7.056,0-.256.1-.322.332-.314a10.869,10.869,0,0,0,1.223,0c.351-.027.405.118.4.429-.012,1.946,0,3.892-.007,5.838a4.8,4.8,0,0,0,.141,1.115,2.176,2.176,0,0,0,1.639,1.855,2.674,2.674,0,0,0,2.741-.921,2.6,2.6,0,0,0,.663-1.808c-.011-2.024.006-4.049-.013-6.073,0-.362.1-.462.447-.435a7.135,7.135,0,0,0,1.128,0c.33-.026.388.114.387.405q-.016,2.754,0,5.508.012,2.282.064,4.564c.005.224-.048.272-.245.268-.392-.008-.785-.013-1.177,0-.261.009-.319-.117-.312-.345a7.037,7.037,0,0,0-.114-1.452" transform="translate(-94.007 -34.471)" fill="#9e458f"/>
    <path id="Path_1177" data-name="Path 1177" d="M210.663,61.4c-.039-1.88.114-3.764-.09-5.644A3.327,3.327,0,0,0,207.9,52.7a6.19,6.19,0,0,0-3.866.33c-1.232.491-.954.318-.6,1.464.059.184.141.235.337.122a4.985,4.985,0,0,1,2.143-.628c1.613-.11,2.692.424,2.846,2.269.02.232-.032.337-.294.341a14.768,14.768,0,0,0-1.5.09,6.719,6.719,0,0,0-3.289,1.13,3.235,3.235,0,0,0,.334,5.507,4.151,4.151,0,0,0,4.38-.746c.161-.157.318-.314.479-.475a.623.623,0,0,1,.094.439c.051.922.051.922.966.922h.887c-.067-.718-.145-1.386-.157-2.061m-2.347-.294a2.685,2.685,0,0,1-2.367,1.107A1.662,1.662,0,0,1,204.32,60.9a2.026,2.026,0,0,1,.738-2.179,4.419,4.419,0,0,1,2.108-.714c.416-.059.844-.055,1.264-.094.255-.023.381.051.357.334-.023.267,0,.534,0,.8a2.9,2.9,0,0,1-.467,2.057" transform="translate(-131.411 -34.118)" fill="#9e458f"/>
    <path id="Path_1178" data-name="Path 1178" d="M477.789,58.113a3.666,3.666,0,0,0,2.832,3.867,4.8,4.8,0,0,0,2.943-.282c.3-.125.389-.076.454.24.244,1.176.259,1.188-.9,1.467a6.938,6.938,0,0,1-3.665,0,4.8,4.8,0,0,1-3.588-4.45,5.367,5.367,0,0,1,2.391-5.5,6.405,6.405,0,0,1,5.774-.49c.189.065.288.135.2.371-.136.365-.116.874-.364,1.088-.279.24-.692-.161-1.066-.223a3.831,3.831,0,0,0-5.013,3.916" transform="translate(-309.077 -34.104)" fill="#9e458f"/>
    <path id="Path_1179" data-name="Path 1179" d="M446.419,63.695a7.249,7.249,0,0,1-2.76-.584c-.234-.106-.286-.225-.192-.46.139-.347.151-.847.4-1.022.271-.19.635.229.979.332a4.415,4.415,0,0,0,2.352.211,1.6,1.6,0,0,0,1.34-1.221,1.558,1.558,0,0,0-.787-1.674,7.2,7.2,0,0,0-1.45-.656,5.569,5.569,0,0,1-1.7-.975,2.775,2.775,0,0,1,.279-4.322,5.1,5.1,0,0,1,4.973-.2c.15.074.207.143.134.321-.141.347-.154.816-.4,1.03-.28.244-.626-.179-.959-.261a3.719,3.719,0,0,0-2.08-.043,1.353,1.353,0,0,0-1,1.135,1.306,1.306,0,0,0,.68,1.341,6.812,6.812,0,0,0,1.359.629,6.974,6.974,0,0,1,1.55.771,2.815,2.815,0,0,1,1.291,2.7,2.866,2.866,0,0,1-1.756,2.476,5.771,5.771,0,0,1-2.256.47" transform="translate(-288.034 -34.152)" fill="#9e458f"/>
    <path id="Path_1180" data-name="Path 1180" d="M428.841,54.818a10.951,10.951,0,0,1,1.042-1.4,3.107,3.107,0,0,1,2.349-.873c.189.005.288.042.282.259-.012.455-.011.91,0,1.365,0,.205-.066.292-.274.255-1.731-.3-3.066,1.119-3.109,3.164-.038,1.8-.023,3.608,0,5.411,0,.4-.11.521-.5.479-.448-.048-1.032.182-1.318-.083s-.086-.859-.089-1.307c-.011-1.961,0-3.922-.008-5.882-.007-1.033-.042-2.067-.087-3.1-.013-.288.06-.372.354-.377,1.352-.023,1.351-.033,1.354,1.338q0,.373,0,.746" transform="translate(-277.451 -34.134)" fill="#9e458f"/>
    <path id="Path_1181" data-name="Path 1181" d="M583.28,43.774c-.169-.239-.188-.385.09-.589a.961.961,0,0,0,.3-1.181.86.86,0,0,0-.891-.613c-.361-.012-.722-.02-1.075-.067-.267-.032-.314.071-.314.306.012.891,0,1.782.008,2.677,0,.161-.055.353.228.361.259.008.287-.126.322-.346.043-.279-.231-.691.169-.82.479-.145.549.349.738.628.035.055.074.106.1.161a.652.652,0,0,0,.856.361c-.188-.318-.342-.612-.53-.879m-.871-.765c-.487.043-.491-.224-.439-.557-.032-.342-.079-.652.459-.6.518.059.75.177.753.553,0,.4-.251.554-.773.6" transform="translate(-377.651 -26.84)" fill="#9e458f"/>
    <path id="Path_1182" data-name="Path 1182" d="M578.635,36.967a3.212,3.212,0,1,0,3.187,3.234,3.127,3.127,0,0,0-3.187-3.234m-.2,6.017a2.728,2.728,0,0,1-2.669-2.869,2.656,2.656,0,0,1,2.794-2.732,2.7,2.7,0,0,1,2.7,3.1,2.736,2.736,0,0,1-2.826,2.5" transform="translate(-373.65 -24.013)" fill="#9e458f"/>
    <path id="Path_1183" data-name="Path 1183" d="M583.28,43.774c-.169-.239-.188-.385.09-.589a.961.961,0,0,0,.3-1.181.86.86,0,0,0-.891-.613c-.361-.012-.722-.02-1.075-.067-.267-.032-.314.071-.314.306.012.891,0,1.782.008,2.677,0,.161-.055.353.228.361.259.008.287-.126.322-.346.043-.279-.231-.691.169-.82.479-.145.549.349.738.628.035.055.074.106.1.161a.652.652,0,0,0,.856.361c-.188-.318-.342-.612-.53-.879m-.871-.765c-.487.043-.491-.224-.439-.557-.032-.342-.079-.652.459-.6.518.059.75.177.753.553,0,.4-.251.554-.773.6" transform="translate(-377.651 -26.84)" fill="#9e458f"/>
    <path id="Path_1184" data-name="Path 1184" d="M583.28,43.774c-.169-.239-.188-.385.09-.589a.961.961,0,0,0,.3-1.181.86.86,0,0,0-.891-.613c-.361-.012-.722-.02-1.075-.067-.267-.032-.314.071-.314.306.012.891,0,1.782.008,2.677,0,.161-.055.353.228.361.259.008.287-.126.322-.346.043-.279-.231-.691.169-.82.479-.145.549.349.738.628.035.055.074.106.1.161a.652.652,0,0,0,.856.361c-.188-.318-.342-.612-.53-.879m-.871-.765c-.487.043-.491-.224-.439-.557-.032-.342-.079-.652.459-.6.518.059.75.177.753.553,0,.4-.251.554-.773.6" transform="translate(-377.651 -26.84)" fill="#9e458f"/>
  </g>
</svg>
